<?xml version="1.0" standalone="no"?>
<!DOCTYPE svg PUBLIC "-//W3C//DTD SVG 20010904//EN"
 "http://www.w3.org/TR/2001/REC-SVG-20010904/DTD/svg10.dtd">
<svg version="1.0" xmlns="http://www.w3.org/2000/svg"
 width="152.000000pt" height="152.000000pt" viewBox="0 0 152.000000 152.000000"
 preserveAspectRatio="xMidYMid meet">
<metadata>
Created by potrace 1.14, written by Peter Selinger 2001-2017
</metadata>
<g transform="translate(0.000000,152.000000) scale(0.100000,-0.100000)"
fill="#000000" stroke="none">
<path d="M941 1159 c-18 -89 -56 -196 -85 -240 -32 -48 -106 -91 -215 -126
l-84 -26 89 -29 c106 -35 160 -65 203 -113 17 -20 31 -31 31 -26 0 21 -64 82
-119 114 -32 17 -56 37 -54 44 2 6 -6 13 -19 15 -18 3 -5 13 60 47 115 60 131
84 182 261 16 52 30 88 33 80 3 -8 16 -51 28 -95 41 -153 71 -191 198 -255
l63 -31 -33 -30 c-18 -16 -37 -29 -42 -29 -29 0 -106 -64 -130 -109 -37 -67
-34 -78 3 -14 36 63 85 94 218 139 l94 31 -73 23 c-90 27 -165 63 -201 97 -35
33 -74 123 -102 233 -13 50 -25 92 -27 95 -3 2 -11 -23 -18 -56z"/>
<path d="M511 1176 c-12 -12 -41 -29 -64 -36 -62 -20 -63 -26 -11 -40 25 -7
59 -24 75 -38 35 -29 39 -15 4 18 -13 12 -22 26 -20 30 3 5 -2 11 -10 14 -12
4 -7 14 22 40 21 20 35 36 32 36 -3 0 -15 -11 -28 -24z"/>
<path d="M620 1193 c0 -12 41 -48 62 -55 7 -3 -3 -21 -23 -42 -45 -50 -60 -78
-21 -42 17 16 55 37 84 47 29 10 46 20 38 22 -69 21 -112 42 -125 60 -8 12
-15 16 -15 10z"/>
<path d="M571 924 c0 -11 3 -14 6 -6 3 7 2 16 -1 19 -3 4 -6 -2 -5 -13z"/>
<path d="M472 770 c0 -14 2 -19 5 -12 2 6 2 18 0 25 -3 6 -5 1 -5 -13z"/>
<path d="M412 596 c-16 -36 -68 -71 -147 -99 l-69 -24 54 -17 c76 -22 130 -55
157 -95 13 -19 23 -31 23 -27 0 15 -30 62 -53 85 -15 13 -24 31 -22 42 3 14
-2 19 -21 19 -35 0 -30 12 17 40 37 23 87 85 77 96 -3 2 -10 -7 -16 -20z"/>
<path d="M520 604 c0 -21 41 -64 88 -92 l47 -27 -31 -3 c-25 -2 -31 -7 -27
-22 3 -12 -4 -24 -22 -36 -14 -9 -35 -34 -46 -55 -26 -52 -24 -63 4 -15 26 46
62 70 154 101 l66 22 -49 12 c-69 18 -141 59 -164 95 -11 17 -20 26 -20 20z"/>
<path d="M975 420 c-4 -17 -5 -34 -2 -36 2 -3 7 10 11 27 8 42 0 50 -9 9z"/>
<path d="M946 376 c2 -16 4 -35 4 -43 0 -8 5 -11 10 -8 13 8 13 45 1 45 -5 0
-12 8 -14 18 -2 9 -3 4 -1 -12z"/>
<path d="M471 194 c0 -11 3 -14 6 -6 3 7 2 16 -1 19 -3 4 -6 -2 -5 -13z"/>
</g>
</svg>
